<svg id="Icons" height="512" viewBox="0 0 74 74" width="512" xmlns="http://www.w3.org/2000/svg"><path d="m22.828 67.634h-13.742a1 1 0 0 1 -1-1v-17.967a1 1 0 0 1 1-1h13.742a1 1 0 0 1 1 1v17.967a1 1 0 0 1 -1 1zm-12.742-2h11.742v-15.967h-11.742z"/><path d="m36.57 67.634h-13.742a1 1 0 0 1 -1-1v-25.7a1 1 0 0 1 1-1h13.742a1 1 0 0 1 1 1v25.7a1 1 0 0 1 -1 1zm-12.742-2h11.742v-23.7h-11.742z"/><path d="m50.312 67.634h-13.742a1 1 0 0 1 -1-1v-33.823a1 1 0 0 1 1-1h13.742a1 1 0 0 1 1 1v33.823a1 1 0 0 1 -1 1zm-12.742-2h11.742v-31.823h-11.742z"/><path d="m64.05 52.43a1 1 0 0 1 -1-1v-2.93a1 1 0 0 1 2 0v2.93a1 1 0 0 1 -1 1z"/><path d="m64.05 67.63h-13.74a1 1 0 0 1 -1-1v-44.45h-5.94a1 1 0 0 1 -.707-1.707l13.81-13.81a1 1 0 0 1 1.414 0l13.82 13.81a1 1 0 0 1 -.707 1.707h-5.95v9.38a1 1 0 0 1 -2 0v-10.38a1 1 0 0 1 1-1h4.534l-11.4-11.4-11.4 11.4h4.526a1 1 0 0 1 1 1v44.45h11.74v-7.19a1 1 0 0 1 2 0v8.19a1 1 0 0 1 -1 1z"/><path d="m64.05 42.5a1 1 0 0 1 -1-1v-2.95a1 1 0 0 1 2 0v2.95a1 1 0 0 1 -1 1z"/><path d="m70.736 67.634h-67.736a1 1 0 0 1 0-2h67.736a1 1 0 0 1 0 2z"/></svg>