<svg id="Capa_1" enable-background="new 0 0 512.055 512.055" height="512" viewBox="0 0 512.055 512.055" width="512" xmlns="http://www.w3.org/2000/svg"><g><path d="m69.862 261.379h274.166c4.143 0 7.5-3.358 7.5-7.5s-3.357-7.5-7.5-7.5h-274.166c-4.143 0-7.5 3.358-7.5 7.5s3.357 7.5 7.5 7.5zm424.491-205.345c-2.183-3.521-6.807-4.605-10.326-2.423-3.521 2.182-4.605 6.805-2.424 10.326 10.091 16.279 15.425 35.063 15.425 54.32 0 56.935-46.32 103.255-103.256 103.255s-103.256-46.32-103.256-103.255c0-56.937 46.32-103.257 103.256-103.257 24.251 0 47.817 8.574 66.357 24.142 3.174 2.664 7.904 2.251 10.566-.921 2.664-3.172 2.252-7.903-.92-10.566-21.238-17.834-48.229-27.655-76.003-27.655-65.89 0-119.221 54.146-118.234 120h-196.131c-43.771 0-79.38 37.05-79.38 82.59v53.973c0 4.142 3.357 7.5 7.5 7.5s7.5-3.358 7.5-7.5v-53.973c0-37.269 28.881-67.59 64.38-67.59h197.299c8.158 57.304 57.542 101.511 117.065 101.511 21.167 0 41.05-5.595 58.256-15.377v144.036c0 37.269-28.881 67.59-64.38 67.59h-83.96c-6.027.046-14.898 2.061-19.103 6.961l-46.397 56.911c-3.073 1.231-5.953-.365-6.141-4.672v-39.19c0-11.034-8.738-20.01-19.479-20.01h-133.16c-35.499 0-64.38-30.321-64.38-67.59v-73.607c0-4.142-3.357-7.5-7.5-7.5s-7.5 3.358-7.5 7.5v73.607c0 45.54 35.609 82.59 79.38 82.59h133.16c2.47 0 4.479 2.248 4.479 5.01v39.19c0 7.575 4.084 14.414 10.659 17.848 6.596 3.445 16.131 3.212 21.285-2.689l46.492-57.029c2.489-1.528 5.307-2.331 8.204-2.331h83.96c43.771 0 79.38-37.05 79.38-82.59v-154.146c27.392-21.677 45-55.203 45-92.767.002-22.052-6.111-43.568-17.673-62.222zm-424.491 145.345h199.166c4.143 0 7.5-3.358 7.5-7.5s-3.357-7.5-7.5-7.5h-199.166c-4.143 0-7.5 3.358-7.5 7.5s3.357 7.5 7.5 7.5zm0 120h327.332c4.143 0 7.5-3.358 7.5-7.5s-3.357-7.5-7.5-7.5h-327.332c-4.143 0-7.5 3.358-7.5 7.5s3.357 7.5 7.5 7.5zm266.204-206.01v36.27c0 2.362-.725 4.627-2.095 6.551l-5.866 8.233c-2.686 3.77-3.036 8.667-.916 12.78s6.313 6.669 10.94 6.669h26.616c3.338 12.912 15.086 22.477 29.026 22.477s25.688-9.565 29.026-22.477h26.616c4.629 0 8.821-2.556 10.941-6.67s1.769-9.012-.917-12.779l-5.866-8.234c-1.37-1.923-2.095-4.188-2.095-6.55v-36.27c0-21.054-11.339-39.503-28.227-49.582.583-2.369.887-4.808.887-7.257 0-16.746-13.624-30.37-30.37-30.37-16.741 0-30.36 13.624-30.36 30.37 0 2.448.304 4.887.886 7.256-16.886 10.079-28.226 28.528-28.226 49.583zm57.706 77.981c-5.527 0-10.365-3.01-12.96-7.477h25.92c-2.595 4.466-7.433 7.477-12.96 7.477zm-.004-150.19c8.931 0 16.022 7.685 15.318 16.582-4.88-1.345-10.012-2.079-15.314-2.079s-10.433.733-15.313 2.078c-.704-8.925 6.343-16.581 15.309-16.581zm.004 29.503c23.548 0 42.706 19.158 42.706 42.706v36.27c0 5.501 1.688 10.776 4.879 15.254l2.835 3.979h-100.839l2.835-3.979c3.191-4.479 4.878-9.754 4.878-15.254v-36.27c0-23.548 19.158-42.706 42.706-42.706zm-323.91 308.716h327.332c4.143 0 7.5-3.358 7.5-7.5s-3.357-7.5-7.5-7.5h-327.332c-4.143 0-7.5 3.358-7.5 7.5s3.357 7.5 7.5 7.5z"/></g></svg>