<svg xmlns="http://www.w3.org/2000/svg" width="51" height="51" viewBox="0 0 51 51">
  <defs>
    <style>
      .cls-1 {
        fill: #fbf8f1;
        fill-opacity: 0;
        stroke: #fff;
        stroke-linejoin: round;
        stroke-width: 1px;
      }

      .cls-2 {
        fill: #efb236;
        fill-rule: evenodd;
      }
    </style>
  </defs>
  <circle id="circle" class="cls-1" cx="25.5" cy="25.5" r="25"/>
  <path id="Nonstop_telephone_line" data-name="Nonstop telephone line" class="cls-2" d="M1167,49a1,1,0,0,1-1-1V47h-2a1,1,0,0,1-1-1,1.124,1.124,0,0,1,.07-0.37h0l0.01-.017h0l1.99-4.981h0A1,1,0,0,1,1167,41a1.124,1.124,0,0,1-.07.37v0l-0.01.017h0L1165.48,45H1166a1,1,0,1,1,2,0,1,1,0,0,1,0,2v1A1,1,0,0,1,1167,49Zm-5,8a7.719,7.719,0,0,1-3.74-1.243,0.884,0.884,0,0,1-1.24-.081,14.555,14.555,0,0,1-4.05-2.963,16.614,16.614,0,0,1-2.7-4.445,1.054,1.054,0,0,1-.28-0.768,1.069,1.069,0,0,1,.28-0.714l1.35-1.481a0.9,0.9,0,0,1,1.35,0l0.67,2.222a1.53,1.53,0,0,1,0,1.482l-0.55.6a13.11,13.11,0,0,0,1.23,1.62,10.933,10.933,0,0,0,1.48,1.343l0.55-.6a1.233,1.233,0,0,1,1.35,0l2.02,0.741a1.105,1.105,0,0,1,0,1.482l-0.09.1A5.1,5.1,0,0,0,1162,55a10,10,0,1,0,0-20h0a1,1,0,1,1,0-2h0A12,12,0,1,1,1162,57Zm0-14a3,3,0,0,1-.88,2.122L1159.34,47H1161a1,1,0,1,1,0,2h-4a0.982,0.982,0,0,1-.38-0.077,1.028,1.028,0,0,1-.33-0.215h0a1,1,0,0,1-.21-0.325A1.014,1.014,0,0,1,1156,48h0a1.062,1.062,0,0,1,.29-0.707h0c0.39-.391,3.42-3.586,3.42-3.586A1,1,0,1,0,1158,43h-2A3,3,0,0,1,1162,43Z" transform="translate(-1136.5 -19.5)"/>
</svg>
