<svg xmlns="http://www.w3.org/2000/svg" width="51" height="51" viewBox="0 0 51 51">
  <defs>
    <style>
      .cls-1 {
        fill: #fff;
        fill-opacity: 0;
        stroke: #d0d0d0;
        stroke-linejoin: round;
        stroke-width: 1px;
      }

      .cls-2 {
        fill: #efb236;
        fill-rule: evenodd;
      }
    </style>
  </defs>
  <circle id="circle" class="cls-1" cx="25.5" cy="25.5" r="25"/>
  <path id="Map" class="cls-2" d="M1387,57a0.982,0.982,0,0,1-.51-0.157v0.014l-4.53-2.717-5.51,2.754-0.01-.009A0.955,0.955,0,0,1,1376,57a0.982,0.982,0,0,1-.51-0.157v0.014l-4.53-2.717-5.51,2.754-0.01-.009A0.955,0.955,0,0,1,1365,57a1,1,0,0,1-1-1V37a0.989,0.989,0,0,1,.56-0.885l-0.01-.009,6-3,0.01,0.009A0.955,0.955,0,0,1,1371,33a0.982,0.982,0,0,1,.51.157V33.143l4.53,2.717,5.51-2.755,0.01,0.009A0.955,0.955,0,0,1,1382,33a0.982,0.982,0,0,1,.51.157V33.143l5,3v0.015A0.982,0.982,0,0,1,1388,37V56A1,1,0,0,1,1387,57Zm-17-21.382-4,2V54.382l4-2V35.618Zm5,1.948-3-1.8V52.434l3,1.8V37.566Zm6-1.948-4,2V54.382l4-2V35.618Zm2,0.148V52.434l3,1.8V37.566Z" transform="translate(-1350.5 -19.5)"/>
</svg>
