<?xml version="1.0" encoding="iso-8859-1"?>
<!-- Generator: Adobe Illustrator 16.0.0, SVG Export Plug-In . SVG Version: 6.00 Build 0)  -->
<!DOCTYPE svg PUBLIC "-//W3C//DTD SVG 1.1//EN" "http://www.w3.org/Graphics/SVG/1.1/DTD/svg11.dtd">
<svg version="1.1" id="Capa_1" xmlns="http://www.w3.org/2000/svg" xmlns:xlink="http://www.w3.org/1999/xlink" x="0px" y="0px"
	 width="83.816px" height="83.816px" viewBox="0 0 83.816 83.816" style="enable-background:new 0 0 83.816 83.816;"
	 xml:space="preserve">
<g>
	<g>
		<rect x="30.759" y="22.854" width="28.5" height="34.667"/>
		<path d="M28.842,67.594h32.333c0.551,0,1-0.449,1-1v-45.46c0-0.551-0.449-1-1-1H28.842c-0.551,0-1,0.449-1,1v45.46
			C27.842,67.146,28.29,67.594,28.842,67.594z M45.009,66.552c-1.884,0-3.417-1.533-3.417-3.417s1.533-3.417,3.417-3.417
			s3.417,1.533,3.417,3.417S46.893,66.552,45.009,66.552z M28.759,21.854c0-0.552,0.448-1,1-1h30.5c0.552,0,1,0.448,1,1v36.667
			c0,0.553-0.448,1-1,1h-30.5c-0.552,0-1-0.447-1-1V21.854z"/>
		<path d="M41.908,83.816c23.146,0,41.909-18.763,41.909-41.908C83.816,18.763,65.054,0,41.908,0S0,18.763,0,41.908
			S18.763,83.816,41.908,83.816z M25.842,21.135c0-1.654,1.346-3,3-3h32.333c1.653,0,3,1.346,3,3v45.46c0,1.654-1.347,3-3,3H28.842
			c-1.654,0-3-1.346-3-3V21.135z"/>
		<circle cx="45.009" cy="63.135" r="1.417"/>
	</g>
</g>
<g>
</g>
<g>
</g>
<g>
</g>
<g>
</g>
<g>
</g>
<g>
</g>
<g>
</g>
<g>
</g>
<g>
</g>
<g>
</g>
<g>
</g>
<g>
</g>
<g>
</g>
<g>
</g>
<g>
</g>
</svg>
